<?xml version="1.0" encoding="utf-8"?>
<!DOCTYPE svg PUBLIC "-//W3C//DTD SVG 20010904//EN" "http://www.w3.org/TR/2001/REC-SVG-20010904/DTD/svg10.dtd">
<svg version="1.0" xmlns="http://www.w3.org/2000/svg" width="405px" height="141px" viewBox="0 0 405 141" preserveAspectRatio="xMidYMid meet">
 <g fill="#ffffff">
  <path d="M0 70.5 l0 -70.5 202.5 0 202.5 0 0 70.5 0 70.5 -202.5 0 -202.5 0 0 -70.5z m294.7 34.7 c2.5 -1.3 5.5 -4 7 -6.4 l2.8 -4.1 0.3 -21.4 0.3 -21.3 -7 0 c-6.6 0 -7.1 0.2 -7.1 2.2 0 1.9 -0.1 2 -1.7 0.6 -1 -0.9 -2.8 -1.9 -4 -2.2 -1.3 -0.4 -2.3 -1 -2.3 -1.4 0 -1.3 -9.4 -0.8 -11 0.6 -0.8 0.7 -3.1 2.3 -5 3.5 -7.1 4.6 -10.1 15.4 -6.5 24 3.3 7.9 14.5 13.1 23.2 10.8 2.3 -0.6 4.5 -1.6 4.8 -2.1 1.3 -2.1 2.7 -0.9 2 1.8 -1 4.1 -3.4 6.3 -6.1 5.6 -1.5 -0.4 -2.4 -0.2 -2.4 0.5 0 0.6 -1.3 1.1 -3 1.1 -1.6 0 -3 -0.4 -3 -1 0 -0.5 -0.6 -0.7 -1.4 -0.4 -0.7 0.3 -3 -0.2 -5 -1 l-3.6 -1.5 -2.5 4.9 -2.5 4.9 2.3 1.2 c8.3 4.5 23.8 5 31.4 1.1z m-220 -11.5 l2.8 -2.7 0.3 -26.3 c0.2 -14.4 0 -27.2 -0.3 -28.5 -0.3 -1.3 -1.8 -3.5 -3.2 -4.8 l-2.6 -2.4 -27.7 0 -27.7 0 -2.6 2.4 c-1.4 1.3 -2.9 3.5 -3.2 4.8 -0.3 1.3 -0.5 14.1 -0.3 28.5 0.3 25.9 0.3 26.2 2.7 28.7 1.3 1.4 3.3 2.7 4.5 2.9 1.1 0.3 13.9 0.4 28.3 0.3 l26.3 -0.1 2.7 -2.8z m102.8 -0.8 c2.2 -0.6 4.8 -1.8 5.8 -2.7 1.6 -1.4 1.7 -1.3 1.7 0.6 0 2 0.5 2.2 7 2.2 l7 0 0 -20.5 0 -20.5 -7 0 -7 0 -0.1 10.3 c0 5.6 -0.5 11.8 -1.2 13.7 -1.3 3.9 -4.8 5.7 -9 4.6 -3.5 -0.8 -4.7 -5.4 -4.7 -18.3 l0 -10.3 -7 0 -7 0 0 13.3 c0 7.2 0.5 14.9 1 16.9 1.4 4.8 5.9 9.3 10.7 10.6 5.1 1.3 5.2 1.3 9.8 0.1z m164.5 0 c2.8 -0.6 6.4 -2.2 8.1 -3.6 l3 -2.6 -3.7 -3.8 c-2.9 -3 -4.1 -3.6 -5.1 -2.8 -0.7 0.7 -1.3 0.8 -1.3 0.3 0 -0.4 -0.5 -0.3 -1.2 0.4 -0.7 0.7 -3.4 1.2 -6 1.2 -4 0 -5.4 -0.5 -7.6 -2.7 l-2.7 -2.8 15.3 -0.3 15.2 -0.3 0 -4.2 c-0.1 -10.4 -7.9 -18.7 -18.9 -20.3 -2 -0.2 -4.6 -0.7 -5.9 -1 -1.2 -0.2 -2.8 0 -3.5 0.6 -0.6 0.5 -3.4 2.5 -6.1 4.3 -7 4.5 -9.9 10.2 -9.4 18.3 0.6 10.2 7.2 17.2 18 19.3 6 1.2 6.1 1.2 11.8 0z m-231 -10.4 l0 -10.5 10 0 10 0 0 10.5 0 10.5 7.5 0 7.5 0 0 -26.5 0 -26.6 -7.2 0.3 -7.3 0.3 -0.3 9.8 -0.3 9.7 -9.9 0 -10 0 0 -10 0 -10 -7.5 0 -7.5 0 0 26.5 0 26.5 7.5 0 7.5 0 0 -10.5z m112 -2 c0 -11.2 0.2 -12.7 2 -14.5 2.4 -2.4 7.7 -2.6 10.2 -0.3 1.6 1.4 1.8 3.3 1.8 14.5 l0 12.8 7.6 0 7.6 0 -0.4 -14.7 c-0.4 -17.3 -1.7 -21.1 -8.3 -24.7 -2.2 -1.1 -4.2 -2.3 -4.5 -2.6 -0.9 -0.9 -10 -0.9 -10 0 0 0.4 -1.6 1.7 -3.5 2.9 -3.4 2 -3.5 2 -3.5 0.1 0 -1.8 -0.7 -2 -7 -2 l-7 0 0 20.5 0 20.5 7.5 0 7.5 0 0 -12.5z m154 1.1 c0 -10.5 0.2 -11.7 2.3 -14.1 1.5 -1.8 3.6 -2.8 6.5 -3.2 l4.2 -0.6 0 -6.2 c0 -5.9 -0.2 -6.3 -2.5 -6.9 -1.4 -0.4 -3.1 -0.2 -3.8 0.4 -0.6 0.5 -2.7 2.1 -4.4 3.6 l-3.3 2.6 0 -2.6 c0 -2.5 -0.2 -2.6 -6.5 -2.6 l-6.5 0 0 4 c-0.1 2.2 -0.1 8.7 -0.1 14.5 0 5.8 0 13.2 0.1 16.5 l0 6 7 0 7 0 0 -11.4z"/>
  <path d="M277.4 78 c-2.6 -1 -4.8 -6.1 -3.9 -9 1.1 -3.4 4.6 -6 8.1 -6 4.6 0 6.3 0.9 8 4.2 4 7.7 -3.5 14.3 -12.2 10.8z"/>
  <path d="M326.6 66.8 c3 -5.3 9.6 -6.6 13.4 -2.8 3.4 3.4 2.4 4 -6.1 4 -6.1 0 -7.9 -0.3 -7.3 -1.2z"/>
 </g>
 <g fill="#654062">
  <path d="M269.5 106.7 c-2.2 -0.8 -5 -1.9 -6.2 -2.6 l-2.3 -1.2 2.5 -4.9 2.5 -4.9 4.2 1.9 c8.9 4 18.6 1.8 20.2 -4.6 0.9 -3.4 0.3 -3.9 -2.6 -2.1 -8.6 5.5 -23.3 0.6 -27.3 -9 -2.9 -7 -1.5 -16.1 3.4 -21.7 4.9 -5.6 17.5 -7.5 23.9 -3.6 3.2 2 3.2 2 3.2 0 0 -1.8 0.7 -2 7.1 -2 l7 0 -0.3 21.3 -0.3 21.4 -2.8 4.1 c-4 6.1 -9.3 8.5 -19.7 8.9 -5.2 0.2 -10.1 -0.2 -12.5 -1z m18.2 -29.2 c4.2 -3 3.4 -12.1 -1.2 -13.9 -5.5 -2.1 -11.8 0.7 -13.1 5.8 -0.6 2.6 1.7 8.1 3.8 8.9 2.7 1.1 8.4 0.6 10.5 -0.8z"/>
  <path d="M17.4 96.3 c-1.2 -0.2 -3.2 -1.5 -4.5 -2.9 -2.4 -2.5 -2.4 -2.8 -2.7 -28.7 -0.2 -14.4 0 -27.2 0.3 -28.5 0.3 -1.3 1.8 -3.5 3.2 -4.8 l2.6 -2.4 27.7 0 27.7 0 2.6 2.4 c1.4 1.3 2.9 3.5 3.2 4.8 0.3 1.3 0.5 14.1 0.3 28.5 l-0.3 26.3 -2.8 2.7 -2.7 2.8 -26.3 0.1 c-14.4 0.1 -27.2 0 -28.3 -0.3z m36.9 -14.6 c4.9 -3.7 7.1 -9.9 6.5 -18 -1.7 -20.7 -17.3 -30.3 -27.5 -16.9 -8.9 11.8 -8.1 29.5 1.7 36 4.9 3.3 14.2 2.8 19.3 -1.1z"/>
  <path d="M167.7 92.8 c-4.8 -1.3 -9.3 -5.8 -10.7 -10.6 -0.5 -2 -1 -9.7 -1 -16.9 l0 -13.3 7 0 7 0 0 10.3 c0 10.6 1.1 16.5 3.2 17.9 0.7 0.4 2.8 0.8 4.5 0.8 5.4 0 6.7 -3.3 7.2 -17.2 l0.3 -11.8 6.9 0 6.9 0 0 20.5 0 20.5 -7 0 c-6.5 0 -7 -0.2 -7 -2.2 0 -1.9 -0.1 -2 -1.7 -0.6 -1.7 1.5 -8.7 3.9 -10.8 3.7 -0.5 -0.1 -2.7 -0.6 -4.8 -1.1z"/>
  <path d="M330.2 92.9 c-6.1 -1.2 -11.8 -4.7 -14.9 -9.2 -2.4 -3.5 -2.8 -5 -2.8 -11.3 0 -6.4 0.3 -7.7 3 -11.5 4.3 -6.1 10.1 -8.9 18.7 -8.9 13.1 0 21.8 8 21.8 19.9 l0 4 -15.2 0.3 -15.3 0.3 2.6 2.7 c3.7 3.8 8.9 4.5 13.8 2.1 l4 -2 3.6 3.7 3.6 3.7 -3 2.6 c-1.7 1.4 -5.3 3 -8.1 3.6 -5.7 1.2 -5.8 1.2 -11.8 0z m11.8 -25.4 c0 -2.9 -3.8 -5.5 -7.9 -5.5 -3.1 0 -4.4 0.6 -6 2.6 -1.2 1.5 -2.1 3.1 -2.1 3.5 0 0.5 3.6 0.9 8 0.9 6.4 0 8 -0.3 8 -1.5z"/>
  <path d="M96 66.5 l0 -26.5 7.5 0 7.5 0 0 10 0 10 10 0 9.9 0 0.3 -9.7 0.3 -9.8 7.3 -0.3 7.2 -0.3 0 26.6 0 26.5 -7.5 0 -7.5 0 0 -10.5 0 -10.5 -10 0 -10 0 0 10.5 0 10.5 -7.5 0 -7.5 0 0 -26.5z"/>
  <path d="M208 72.5 l0 -20.5 7 0 c6.3 0 7 0.2 7 2 0 2 0 2 3.3 0 4.5 -2.8 14.7 -2.8 19.2 0 5.7 3.5 6.9 7.6 7.3 24.3 l0.4 14.7 -7.6 0 -7.6 0 0 -12.8 c0 -11.2 -0.2 -13.1 -1.8 -14.5 -2.5 -2.3 -7.8 -2.1 -10.2 0.3 -1.8 1.8 -2 3.3 -2 14.5 l0 12.5 -7.5 0 -7.5 0 0 -20.5z"/>
  <path d="M363 87 c-0.1 -3.3 -0.1 -10.7 -0.1 -16.5 0 -5.8 0 -12.3 0.1 -14.5 l0 -4 6.5 0 c6.2 0 6.5 0.1 6.5 2.5 l0 2.4 3.6 -2.4 c2.1 -1.4 5.1 -2.5 7 -2.5 l3.4 0 0 5.9 0 5.8 -4.2 0.6 c-2.9 0.4 -5 1.4 -6.5 3.2 -2.1 2.4 -2.3 3.6 -2.3 14.1 l0 11.4 -7 0 -7 0 0 -6z"/>
 </g>
 <g fill="#f2f2f7">
  <path d="M282 96 c0 -0.5 0.7 -1 1.5 -1 0.8 0 1.5 0.5 1.5 1 0 0.6 -0.7 1 -1.5 1 -0.8 0 -1.5 -0.4 -1.5 -1z"/>
  <path d="M35 82.8 c-9.8 -6.5 -10.6 -24.2 -1.7 -36 10.2 -13.4 25.8 -3.8 27.5 16.9 1 12.8 -4.8 20.4 -16.2 21.1 -5.1 0.3 -6.7 0 -9.6 -2z m15.6 -6.2 c3.8 -3.8 4.3 -7 1.9 -11.6 -1.9 -3.6 -4.3 -5 -8.9 -5 -4.9 0 -8.6 3.4 -9.3 8.7 -0.5 3.9 -0.2 4.6 3 7.8 4.7 4.7 8.6 4.8 13.3 0.1z"/>
  <path d="M329.8 68.3 c2.3 -0.2 6.1 -0.2 8.5 0 2.3 0.2 0.4 0.4 -4.3 0.4 -4.7 0 -6.6 -0.2 -4.2 -0.4z"/>
  <path d="M229 51.1 c0 -0.4 2.2 -0.8 5 -0.7 6.5 0.1 6.5 1.6 0 1.6 -2.7 0 -5 -0.4 -5 -0.9z"/>
  <path d="M273 51.1 c0 -0.4 2.2 -0.8 5 -0.7 6.5 0.1 6.5 1.6 0 1.6 -2.7 0 -5 -0.4 -5 -0.9z"/>
  <path d="M328 51 c0 -0.6 1.6 -0.8 4.3 -0.4 5.8 0.9 5.9 1.4 0.4 1.4 -2.6 0 -4.7 -0.5 -4.7 -1z"/>
  <path d="M384 51 c0 -1.2 1.7 -1.2 4.5 0 1.7 0.7 1.5 0.9 -1.2 0.9 -1.8 0.1 -3.3 -0.3 -3.3 -0.9z"/>
 </g>
 <g fill="#f95b3d">
  <path d="M37.3 76.5 c-3.2 -3.2 -3.5 -3.9 -3 -7.8 0.7 -5.3 4.4 -8.7 9.3 -8.7 4.6 0 7 1.4 8.9 5 2.4 4.6 1.9 7.8 -1.9 11.6 -4.7 4.7 -8.6 4.6 -13.3 -0.1z"/>
 </g>
</svg>